<?xml version="1.0" standalone="no"?>
<!DOCTYPE svg PUBLIC "-//W3C//DTD SVG 20010904//EN"
 "http://www.w3.org/TR/2001/REC-SVG-20010904/DTD/svg10.dtd">
<svg version="1.0" xmlns="http://www.w3.org/2000/svg"
 width="200.000000pt" height="200.000000pt" viewBox="0 0 200.000000 200.000000"
 preserveAspectRatio="xMidYMid meet">

<g transform="translate(0.000000,200.000000) scale(0.100000,-0.100000)"
fill="currentColor" stroke="none">
<path d="M855 1855 c-144 -38 -286 -96 -359 -148 -27 -19 -28 -23 -23 -73 11
-109 105 -232 228 -299 68 -37 108 -30 149 27 17 23 30 47 30 55 0 14 35 53
49 53 21 0 44 -131 52 -295 4 -93 11 -187 15 -207 l6 -37 -47 15 c-104 31
-284 11 -389 -43 -28 -14 -29 -14 -79 36 -85 86 -212 133 -241 89 -17 -27 2
-47 60 -67 67 -22 147 -82 187 -140 26 -38 32 -56 32 -101 1 -63 8 -80 35 -80
42 0 66 96 40 164 -9 24 -6 26 45 45 119 45 240 47 341 7 31 -13 50 -31 80
-77 40 -62 135 -144 180 -155 14 -4 31 -1 39 6 29 24 16 48 -45 90 -132 90
-166 175 -180 460 -9 188 -23 268 -60 340 -22 43 -46 50 -93 29 -19 -9 -30 -7
-58 10 -40 25 -70 26 -109 6 -36 -19 -48 -52 -26 -73 14 -14 21 -14 52 -3 52
19 62 4 34 -53 -12 -25 -25 -46 -30 -46 -4 0 -41 24 -81 53 -59 42 -79 63
-101 107 -48 99 -50 94 44 138 91 44 229 90 293 99 41 5 41 5 129 -88 361
-379 529 -701 566 -1079 7 -78 17 -120 37 -164 l28 -58 -30 -24 c-17 -13 -48
-29 -70 -35 -22 -6 -100 -29 -174 -50 -210 -61 -341 -82 -516 -82 -167 -1
-240 13 -351 63 -70 31 -104 29 -104 -8 0 -28 13 -40 71 -67 119 -54 199 -68
389 -69 195 0 311 19 540 88 63 19 131 37 150 41 82 17 170 90 170 141 0 14
-13 56 -29 92 -21 50 -30 90 -35 157 -19 265 -126 536 -311 784 -142 191 -385
451 -419 450 -12 0 -61 -11 -111 -24z"/>
<path d="M1127 514 c-78 -52 -135 -68 -242 -68 -97 -1 -102 0 -168 37 -77 42
-92 45 -107 17 -16 -29 0 -52 60 -84 142 -77 306 -73 464 12 78 42 97 63 80
90 -16 25 -44 24 -87 -4z"/>
</g>
</svg>
