<?xml version="1.0" standalone="no"?>
<!DOCTYPE svg PUBLIC "-//W3C//DTD SVG 20010904//EN"
 "http://www.w3.org/TR/2001/REC-SVG-20010904/DTD/svg10.dtd">
<svg version="1.0" xmlns="http://www.w3.org/2000/svg"
 width="512.000000pt" height="512.000000pt" viewBox="0 0 512.000000 512.000000"
 preserveAspectRatio="xMidYMid meet">

<g transform="translate(0.000000,512.000000) scale(0.100000,-0.100000)"
fill="#000000" stroke="none">
<path d="M1300 4850 c-563 -55 -1045 -438 -1225 -973 -54 -162 -69 -257 -69
-452 0 -134 4 -203 17 -269 36 -178 103 -348 193 -493 l45 -73 758 0 758 0
472 475 471 476 0 -718 0 -718 243 243 242 242 827 0 827 0 45 73 c88 141 158
321 193 494 24 123 24 395 0 518 -104 530 -466 945 -970 1109 -363 119 -754
89 -1100 -85 -148 -75 -281 -178 -419 -327 l-47 -50 -93 95 c-197 202 -408
325 -672 393 -170 43 -328 56 -496 40z"/>
<path d="M2155 2520 l-240 -240 -677 0 c-373 0 -678 -3 -678 -8 0 -4 450 -457
1000 -1007 l1000 -1000 1000 1000 c550 550 1000 1003 1000 1007 0 5 -274 8
-609 8 l-608 0 -472 -475 -471 -475 -2 715 -3 715 -240 -240z"/>
</g>
</svg>
