<?xml version="1.0" standalone="no"?>
<!DOCTYPE svg PUBLIC "-//W3C//DTD SVG 20010904//EN"
 "http://www.w3.org/TR/2001/REC-SVG-20010904/DTD/svg10.dtd">
<svg version="1.0" xmlns="http://www.w3.org/2000/svg"
 width="512.000000pt" height="512.000000pt" viewBox="0 0 512.000000 512.000000"
 preserveAspectRatio="xMidYMid meet">

<g transform="translate(0.000000,512.000000) scale(0.100000,-0.100000)"
fill="currentColor" stroke="none">
<path d="M3725 4910 l-210 -210 593 -592 592 -593 210 210 210 210 -237 237
-238 238 100 100 100 100 -108 107 -107 108 -100 -100 -100 -100 -248 248
-247 247 -210 -210z"/>
<path d="M2670 4695 l-215 -215 448 -448 447 -447 -908 -908 -907 -907 -450
450 -450 450 -215 -215 -215 -215 1015 -1015 1015 -1015 215 215 215 215 -458
458 -457 457 908 908 907 907 460 -460 460 -460 215 215 215 215 -1015 1015
-1015 1015 -215 -215z"/>
<path d="M207 1393 l-207 -208 237 -237 238 -238 -100 -100 -100 -100 108
-107 107 -108 100 100 100 100 248 -248 247 -247 210 210 210 210 -590 590
c-324 325 -592 590 -595 590 -3 0 -98 -93 -213 -207z"/>
</g>
</svg>
