<?xml version="1.0" standalone="no"?>
<!DOCTYPE svg PUBLIC "-//W3C//DTD SVG 20010904//EN"
 "http://www.w3.org/TR/2001/REC-SVG-20010904/DTD/svg10.dtd">
<svg version="1.0" xmlns="http://www.w3.org/2000/svg"
 width="512.000000pt" height="512.000000pt" viewBox="0 0 512.000000 512.000000"
 preserveAspectRatio="xMidYMid meet">

<g transform="translate(0.000000,512.000000) scale(0.100000,-0.100000)"
fill="currentColor" stroke="none">
<path d="M2449 4596 c-165 -63 -260 -186 -267 -346 -11 -226 155 -402 378
-402 216 0 380 165 380 381 0 154 -79 278 -220 345 -55 26 -78 31 -150 33 -53
2 -98 -3 -121 -11z"/>
<path d="M1331 2994 c-261 -399 -478 -727 -482 -729 -3 -3 -10 76 -14 175 l-7
180 -184 0 -184 0 0 -740 0 -740 183 2 182 3 3 338 2 337 315 0 315 0 0 -561
c0 -392 3 -573 11 -600 62 -205 362 -193 418 16 7 26 11 229 11 593 l0 552
635 0 635 0 0 -553 c0 -616 1 -624 64 -689 106 -110 280 -84 349 51 l27 55 0
568 0 568 340 0 340 0 0 -315 0 -315 185 0 185 0 0 740 0 740 -186 0 -186 0 6
-52 c4 -40 17 -349 21 -493 0 -5 -7 -11 -16 -13 -11 -2 -161 227 -525 803
l-509 805 -730 0 -730 0 -474 -726z m719 -48 l0 -444 -295 -73 -295 -74 0
-122 0 -123 -126 0 c-69 0 -124 4 -122 8 4 12 832 1271 836 1272 1 0 2 -200 2
-444z m1428 -198 c243 -345 442 -630 442 -633 0 -3 -70 -5 -155 -5 l-155 0 0
123 0 122 -295 74 -295 73 0 446 c0 245 4 442 8 437 5 -6 208 -292 450 -637z
m-768 -581 l115 -55 -274 -1 c-151 -1 -272 1 -269 4 3 3 61 30 129 60 84 36
134 53 154 50 17 -2 82 -28 145 -58z"/>
<path d="M4750 1930 l0 -620 185 0 185 0 0 620 0 620 -185 0 -185 0 0 -620z"/>
<path d="M0 1885 l0 -615 185 0 185 0 0 615 0 615 -185 0 -185 0 0 -615z"/>
</g>
</svg>
