<?xml version="1.0" standalone="no"?>
<!DOCTYPE svg PUBLIC "-//W3C//DTD SVG 20010904//EN"
 "http://www.w3.org/TR/2001/REC-SVG-20010904/DTD/svg10.dtd">
<svg version="1.0" xmlns="http://www.w3.org/2000/svg"
 width="920.000000pt" height="768.000000pt" viewBox="0 0 920.000000 768.000000"
 preserveAspectRatio="xMidYMid meet">

<g transform="translate(0.000000,768.000000) scale(0.100000,-0.100000)"
fill="currentColor" stroke="none">
<path d="M4435 6546 c-282 -65 -497 -271 -577 -553 -31 -110 -31 -285 1 -397
72 -258 267 -459 521 -538 64 -20 96 -23 220 -23 124 0 156 3 220 23 256 80
448 278 522 539 31 111 31 287 0 396 -73 257 -254 447 -507 533 -67 23 -101
27 -210 30 -86 3 -150 -1 -190 -10z"/>
<path d="M4457 4594 c-309 -56 -557 -308 -612 -619 -19 -109 -19 -173 -1 -267
33 -168 98 -292 215 -409 303 -303 779 -303 1082 0 210 211 280 509 184 791
-38 112 -98 205 -189 295 -90 88 -161 135 -264 172 -143 52 -269 64 -415 37z"/>
<path d="M4435 2636 c-284 -67 -496 -270 -577 -553 -31 -109 -31 -285 0 -396
62 -217 201 -387 398 -486 124 -62 187 -76 344 -76 157 0 219 14 345 76 190
94 337 274 396 485 32 112 32 287 1 397 -74 259 -265 458 -517 537 -90 29
-299 37 -390 16z"/>
</g>
</svg>
