<?xml version="1.0" standalone="no"?>
<!DOCTYPE svg PUBLIC "-//W3C//DTD SVG 20010904//EN"
 "http://www.w3.org/TR/2001/REC-SVG-20010904/DTD/svg10.dtd">
<svg version="1.0" xmlns="http://www.w3.org/2000/svg"
 width="512.000000pt" height="512.000000pt" viewBox="0 0 512.000000 512.000000"
 preserveAspectRatio="xMidYMid meet">

<g transform="translate(0.000000,512.000000) scale(0.100000,-0.100000)"
fill="currentColor" stroke="none">
<path d="M3918 5099 c-67 -35 -96 -124 -62 -192 9 -18 104 -121 212 -230 l197
-197 -333 -332 -332 -333 -312 312 c-172 171 -327 318 -345 327 -122 61 -258
-75 -197 -197 9 -18 48 -65 87 -105 l72 -72 -972 -973 c-534 -534 -983 -992
-998 -1016 -59 -95 -85 -224 -66 -327 6 -32 26 -91 45 -130 l34 -71 -210 -209
c-115 -115 -218 -226 -229 -246 -37 -72 -21 -128 64 -216 l52 -52 -297 -298
c-163 -163 -303 -311 -312 -329 -61 -122 75 -258 197 -197 18 9 166 149 329
312 l298 297 52 -52 c88 -85 144 -101 216 -64 20 11 131 114 246 229 l209 210
71 -34 c39 -19 98 -39 130 -45 103 -19 232 7 327 66 24 15 482 464 1016 998
l973 972 72 -72 c40 -39 87 -78 105 -87 122 -61 258 75 197 197 -9 18 -156
173 -327 345 l-312 312 333 332 332 333 197 -197 c109 -108 212 -203 230 -212
69 -34 158 -5 193 64 25 49 25 90 1 138 -24 46 -1004 1024 -1048 1046 -42 21
-90 20 -135 -5z m-423 -1609 l370 -370 -112 -112 -113 -113 -72 72 c-40 39
-87 78 -105 87 -122 61 -258 -75 -197 -197 9 -18 48 -65 87 -105 l72 -72 -113
-112 -112 -113 -72 72 c-40 39 -87 78 -105 87 -122 61 -258 -75 -197 -197 9
-18 48 -65 87 -105 l72 -72 -113 -112 -112 -113 -72 72 c-109 106 -158 124
-238 83 -45 -23 -80 -80 -80 -130 0 -47 25 -88 103 -168 l72 -72 -113 -112
-112 -113 -72 72 c-40 39 -87 78 -105 87 -122 61 -258 -75 -197 -197 9 -18 48
-65 88 -105 l71 -73 -90 -88 c-105 -103 -146 -123 -218 -102 -36 11 -86 56
-329 299 -243 243 -288 293 -299 330 -27 94 -83 31 979 1095 532 532 969 967
972 967 3 0 172 -166 375 -370z m-2240 -2240 l90 -90 -153 -153 -152 -152 -92
93 -93 92 150 150 c82 82 152 150 155 150 3 0 46 -41 95 -90z"/>
</g>
</svg>
