<?xml version="1.0" standalone="no"?>
<!DOCTYPE svg PUBLIC "-//W3C//DTD SVG 20010904//EN"
 "http://www.w3.org/TR/2001/REC-SVG-20010904/DTD/svg10.dtd">
<svg version="1.0" xmlns="http://www.w3.org/2000/svg"
 width="512.000000pt" height="512.000000pt" viewBox="0 0 512.000000 512.000000"
 preserveAspectRatio="xMidYMid meet">

<g transform="translate(0.000000,512.000000) scale(0.100000,-0.100000)"
fill="#000000" stroke="none">
<path d="M735 4946 c-41 -18 -83 -69 -90 -109 -3 -18 -5 -370 -3 -784 3 -741
3 -752 24 -779 44 -60 67 -69 174 -69 107 0 130 9 174 69 21 27 21 35 21 806
0 771 0 779 -21 806 -42 57 -69 69 -162 72 -58 1 -97 -2 -117 -12z"/>
<path d="M4175 4946 c-41 -18 -83 -69 -90 -109 -3 -18 -5 -370 -3 -784 3 -741
3 -752 24 -779 44 -60 67 -69 174 -69 107 0 130 9 174 69 21 27 21 35 21 806
0 771 0 779 -21 806 -42 57 -69 69 -162 72 -58 1 -97 -2 -117 -12z"/>
<path d="M1309 4771 l-29 -29 0 -171 0 -171 160 0 160 0 0 171 0 171 -29 29
c-29 28 -32 29 -131 29 -99 0 -102 -1 -131 -29z"/>
<path d="M3549 4771 l-29 -29 0 -171 0 -171 160 0 160 0 0 171 0 171 -29 29
c-29 28 -32 29 -131 29 -99 0 -102 -1 -131 -29z"/>
<path d="M320 4707 c-49 -16 -133 -102 -148 -153 -17 -58 -17 -890 0 -948 16
-55 99 -138 154 -154 23 -7 67 -12 98 -12 l56 0 0 640 0 640 -62 -1 c-35 -1
-79 -6 -98 -12z"/>
<path d="M4640 4080 l0 -640 58 0 c87 0 144 23 195 80 24 26 49 66 55 88 17
55 17 889 0 944 -6 22 -31 62 -55 88 -51 57 -108 80 -195 80 l-58 0 0 -640z"/>
<path d="M1200 4080 l0 -160 1360 0 1360 0 0 160 0 160 -1360 0 -1360 0 0
-160z"/>
<path d="M1280 2200 l0 -1560 160 0 160 0 0 1560 0 1560 -160 0 -160 0 0
-1560z"/>
<path d="M3520 2200 l0 -1560 160 0 160 0 0 1560 0 1560 -160 0 -160 0 0
-1560z"/>
<path d="M2015 2306 c-41 -18 -83 -69 -91 -110 -3 -19 -4 -84 -2 -144 3 -120
12 -142 72 -186 27 -21 38 -21 566 -21 528 0 539 0 566 21 64 47 69 63 69 214
0 151 -5 167 -69 214 -27 21 -40 21 -554 23 -423 2 -533 0 -557 -11z"/>
<path d="M2400 1160 l0 -520 160 0 160 0 0 520 0 520 -160 0 -160 0 0 -520z"/>
<path d="M1760 1200 l0 -160 240 0 240 0 0 160 0 160 -240 0 -240 0 0 -160z"/>
<path d="M2880 1200 l0 -160 240 0 240 0 0 160 0 160 -240 0 -240 0 0 -160z"/>
<path d="M185 455 c-24 -23 -25 -31 -25 -135 0 -104 1 -112 25 -135 l24 -25
2351 0 2351 0 24 25 c24 23 25 31 25 135 0 104 -1 112 -25 135 l-24 25 -2351
0 -2351 0 -24 -25z"/>
</g>
</svg>
