<?xml version="1.0" standalone="no"?>
<!DOCTYPE svg PUBLIC "-//W3C//DTD SVG 20010904//EN"
 "http://www.w3.org/TR/2001/REC-SVG-20010904/DTD/svg10.dtd">
<svg version="1.0" xmlns="http://www.w3.org/2000/svg"
 width="512.000000pt" height="512.000000pt" viewBox="0 0 512.000000 512.000000"
 preserveAspectRatio="xMidYMid meet">

<g transform="translate(0.000000,512.000000) scale(0.100000,-0.100000)"
fill="currentColor" stroke="none">
<path d="M1122 5027 c-19 -6 -55 -30 -82 -54 -72 -65 -80 -97 -80 -331 0 -233
6 -258 75 -327 56 -57 102 -75 189 -75 l56 0 0 -80 0 -80 -64 0 c-165 0 -304
-58 -418 -174 -58 -59 -91 -112 -127 -205 l-26 -66 -3 -1519 c-1 -917 1 -1540
7 -1570 39 -210 181 -371 391 -442 53 -18 115 -19 1520 -19 1405 0 1467 1
1520 19 181 61 312 189 372 364 l23 67 0 1545 c0 1481 -1 1547 -19 1600 -80
238 -270 383 -518 397 l-98 6 0 78 0 79 56 0 c31 0 75 5 98 12 55 16 138 99
154 154 16 55 16 412 0 466 -6 22 -31 62 -55 88 -78 87 47 80 -1537 79 -961
-1 -1411 -4 -1434 -12z m2853 -172 c25 -24 25 -26 25 -215 0 -255 14 -240
-225 -240 l-175 0 0 160 0 160 -80 0 -80 0 0 -160 0 -160 -160 0 -160 0 0 160
0 160 -80 0 -80 0 0 -160 0 -160 -160 0 -160 0 0 160 0 160 -80 0 -80 0 0
-160 0 -160 -200 0 -200 0 0 160 0 160 -80 0 -80 0 0 -160 0 -160 -160 0 -160
0 0 160 0 160 -80 0 -80 0 0 -160 0 -160 -135 0 c-131 0 -137 1 -160 25 -25
24 -25 26 -25 215 0 189 0 191 25 215 l24 25 1391 0 1391 0 24 -25z m-295
-695 l0 -80 -1120 0 -1120 0 0 80 0 80 1120 0 1120 0 0 -80z m412 -282 c91
-45 147 -103 191 -196 l32 -67 0 -1535 0 -1535 -32 -67 c-44 -93 -100 -151
-191 -196 l-76 -37 -1455 0 -1456 0 -65 31 c-95 46 -153 101 -197 192 l-38 76
0 1535 0 1536 32 67 c17 37 50 87 72 111 44 48 135 101 197 116 23 5 630 9
1475 8 l1435 -2 76 -37z"/>
<path d="M1122 3427 c-19 -6 -55 -30 -82 -54 -86 -77 -80 27 -80 -1371 0 -940
3 -1244 12 -1276 16 -55 99 -138 154 -154 60 -17 2808 -17 2868 0 55 16 138
99 154 154 17 59 17 2488 0 2546 -6 22 -31 62 -55 88 -78 87 47 80 -1537 79
-961 -1 -1411 -4 -1434 -12z m2853 -172 l25 -24 0 -1231 0 -1231 -25 -24 -24
-25 -1391 0 -1391 0 -24 25 -25 24 0 1231 0 1231 25 24 24 25 1391 0 1391 0
24 -25z"/>
<path d="M1360 2585 l0 -376 25 -24 c27 -28 70 -33 101 -11 13 10 49 92 104
240 47 124 87 226 90 226 3 0 43 -102 90 -226 55 -148 91 -230 104 -240 31
-22 74 -17 101 11 l25 24 0 376 0 375 -80 0 -80 0 -1 -137 0 -138 -45 120
c-47 126 -68 155 -114 155 -46 0 -67 -29 -114 -155 l-45 -120 0 138 -1 137
-80 0 -80 0 0 -375z"/>
<path d="M2080 2560 l0 -400 80 0 80 0 0 160 0 160 120 0 120 0 0 -160 0 -160
80 0 80 0 0 400 0 400 -80 0 -80 0 0 -160 0 -160 -120 0 -120 0 0 160 0 160
-80 0 -80 0 0 -400z"/>
<path d="M2745 2935 l-25 -24 0 -351 0 -351 25 -24 c24 -25 24 -25 240 -25
l215 0 0 80 0 80 -160 0 -160 0 0 80 0 80 160 0 160 0 0 80 0 80 -160 0 -160
0 0 80 0 80 160 0 160 0 0 80 0 80 -215 0 c-216 0 -216 0 -240 -25z"/>
<path d="M3280 2828 l0 -133 80 -120 80 -120 0 -147 0 -148 80 0 80 0 0 148 0
147 80 120 80 120 0 133 0 132 -80 0 -80 0 0 -107 c0 -106 0 -107 -37 -165
-21 -32 -40 -58 -43 -58 -3 0 -22 26 -42 58 -38 58 -38 59 -38 165 l0 107 -80
0 -80 0 0 -132z"/>
<path d="M2423 1737 c-311 -311 -343 -345 -343 -375 0 -22 8 -41 25 -57 23
-24 30 -25 140 -25 63 0 115 -1 115 -3 0 -2 -27 -70 -60 -152 -33 -82 -60
-159 -60 -172 0 -35 43 -73 82 -73 30 0 64 32 375 343 311 311 343 345 343
375 0 22 -8 41 -25 57 -23 24 -30 25 -140 25 -63 0 -115 1 -115 3 0 2 27 70
60 152 33 82 60 159 60 172 0 35 -43 73 -82 73 -30 0 -64 -32 -375 -343z m140
-126 c-5 -34 -1 -43 22 -65 23 -21 38 -26 101 -28 l74 -3 -104 -104 -105 -104
6 41 c5 34 2 44 -20 66 -24 24 -34 26 -104 26 l-78 0 105 105 c58 58 105 105
106 105 1 0 0 -18 -3 -39z"/>
</g>
</svg>
